<svg width="600" height="600" viewBox="0 0 600 600" fill="none" xmlns="http://www.w3.org/2000/svg">
  <!-- Fondo del ícono de AI -->
  <rect x="150" y="150" width="300" height="300" rx="40" fill="white" />
  <text x="300" y="340" font-size="160" font-weight="bold" text-anchor="middle" fill="#000033">AI</text>
  
  <!-- Nodos y conexiones alrededor del ícono de AI -->
  <circle cx="100" cy="100" r="25" fill="white" />
  <circle cx="100" cy="300" r="25" fill="white" />
  <circle cx="100" cy="500" r="25" fill="white" />
  
  <circle cx="300" cy="50" r="25" fill="white" />
  <circle cx="300" cy="550" r="25" fill="white" />
  
  <circle cx="500" cy="100" r="25" fill="white" />
  <circle cx="500" cy="300" r="25" fill="white" />
  <circle cx="500" cy="500" r="25" fill="white" />
  
  <circle cx="175" cy="175" r="25" fill="white" />
  <circle cx="175" cy="425" r="25" fill="white" />
  <circle cx="425" cy="175" r="25" fill="white" />
  <circle cx="425" cy="425" r="25" fill="white" />
  
  <!-- Líneas de conexión -->
  <line x1="100" y1="100" x2="175" y2="175" stroke="white" stroke-width="10" />
  <line x1="100" y1="300" x2="150" y2="300" stroke="white" stroke-width="10" />
  <line x1="100" y1="500" x2="175" y2="425" stroke="white" stroke-width="10" />
  
  <line x1="300" y1="50" x2="300" y2="150" stroke="white" stroke-width="10" />
  <line x1="300" y1="450" x2="300" y2="550" stroke="white" stroke-width="10" />
  
  <line x1="425" y1="175" x2="500" y2="100" stroke="white" stroke-width="10" />
  <line x1="450" y1="300" x2="500" y2="300" stroke="white" stroke-width="10" />
  <line x1="425" y1="425" x2="500" y2="500" stroke="white" stroke-width="10" />
</svg> 